<svg xmlns="http://www.w3.org/2000/svg" width="156.658" height="102.346" viewBox="0 0 156.658 102.346">
  <g id="Grupo_11178" data-name="Grupo 11178" transform="translate(-704 -2968)">
    <path id="Trazado_166" data-name="Trazado 166" d="M283.991,285.575c-.311-1.676-.939-3.457-4.892-3.457s-4.474,1.431-4.474,2.568c0,4.149,17.33,1.14,17.33,10.818,0,7.656-7.811,9.04-12.133,9.04-6.291,0-13.111-2.078-13.323-9.086h7.494c0,2.214,1.461,3.848,6.04,3.848,3.748,0,4.631-1.73,4.631-2.716,0-4.392-17.178-1.086-17.178-10.911,0-3.856,2.551-8.8,11.2-8.8,5.412,0,11.864,1.287,12.438,8.7Z" transform="translate(568.703 2765.341)" fill="#e84a4a"/>
    <path id="Trazado_167" data-name="Trazado 167" d="M229.086,277.657v26.514h-6.392v-2.034a13.941,13.941,0,1,1,.1-22.624v-1.855Zm-14.048,21.132a7.869,7.869,0,1,0-7.875-7.869A7.864,7.864,0,0,0,215.038,298.789Z" transform="translate(503.345 2765.308)" fill="#e84a4a"/>
    <path id="Trazado_168" data-name="Trazado 168" d="M279.865,277.807v26.518h-6.388v-2.036a13.946,13.946,0,1,1,.1-22.624v-1.857Zm-14.044,21.142a7.873,7.873,0,1,0-7.873-7.871A7.877,7.877,0,0,0,265.822,298.949Z" transform="translate(553.751 2765.455)" fill="#e84a4a"/>
    <path id="Trazado_169" data-name="Trazado 169" d="M244.29,272.78v35.554H237.9V306.3a13.945,13.945,0,1,1,.1-22.628V272.78Zm-14.046,30.178a7.873,7.873,0,1,0-7.871-7.883A7.884,7.884,0,0,0,230.245,302.958Z" transform="translate(518.443 2761.272)" fill="#e84a4a"/>
    <path id="Trazado_170" data-name="Trazado 170" d="M264.576,272.78v35.554h-6.388V306.3a13.947,13.947,0,1,1,.1-22.628V272.78Zm-14.042,30.178a7.873,7.873,0,1,0-7.875-7.883A7.884,7.884,0,0,0,250.534,302.958Z" transform="translate(538.575 2761.272)" fill="#e84a4a"/>
    <rect id="Rect치ngulo_6" data-name="Rect치ngulo 6" width="6.894" height="26.051" transform="translate(765.945 3043.429)" fill="#e84a4a"/>
    <path id="Trazado_171" data-name="Trazado 171" d="M213.607,282.2l-4.129-6.38,22.528-12.674,11.545,19.147Z" transform="translate(512.104 2751.708)" fill="#e84a4a"/>
    <path id="Trazado_172" data-name="Trazado 172" d="M259.517,239.631l-22.9,12.588,30.036,52.75h31.731Z" transform="translate(539.04 2728.369)" fill="#e84a4a"/>
    <path id="Trazado_173" data-name="Trazado 173" d="M270.285,292.937l-25.317-41.6L223.3,264.457l16.17,28.48Z" transform="translate(525.825 2739.99)" fill="#e84a4a"/>
    <rect id="Rect치ngulo_7" data-name="Rect치ngulo 7" width="7.014" height="6.407" transform="translate(765.859 3034.605)" fill="#e84a4a"/>
  </g>
</svg>
