<svg id="Grupo_15" data-name="Grupo 15" xmlns="http://www.w3.org/2000/svg" width="222.551" height="72.258" viewBox="0 0 222.551 72.258">
  <g id="Grupo_14" data-name="Grupo 14" transform="translate(0 0)">
    <path id="Trazado_86" data-name="Trazado 86" d="M430.152,36.9c-11.941.008-25.091,7.31-33.345,14.228l.652.944c12.809-8.987,30.6-14.826,35.5-6.062,2.591,4.622-1.8,13.957-7.991,21.337,1.485-3.258.5-9.514-8.124-9.514-14.345,0-42.586,19.009-42.586,38.448,0,7.791,5.4,12.878,14.3,12.878,23.827,0,56.143-39.063,56.143-58.68C444.7,43.547,440.715,36.9,430.152,36.9ZM396.709,88.139c-4.118,0-6.1-3.166-5.072-6.835,2.143-7.6,15.871-18.859,25.218-18.859,6.833,0,6.3,6.1,2.314,11.309l-2.216,2.45C409.029,83.983,401.675,88.139,396.709,88.139Z" transform="translate(-374.253 -36.896)" fill="#e84a4a"/>
    <g id="Grupo_13" data-name="Grupo 13" transform="translate(71.894 16.719)">
      <path id="Trazado_87" data-name="Trazado 87" d="M448.356,49.487a11.284,11.284,0,0,0-8.281-3.9H426.137l-2.369,8.822h13.143l1.258.133a2.983,2.983,0,0,1,1.867,1.039,3.885,3.885,0,0,1,.231,3.32l-.617,2.321h-8.285c-7.122,0-17.053,5.116-19.271,13.368a11.232,11.232,0,0,0,2,10.312c2.121,2.6,6.128,4.031,10.461,4.031h7.662v.008h9.747l4.575-17.071L449.9,59.317C451.228,54.384,449.793,51.249,448.356,49.487ZM426.312,80.113a4.088,4.088,0,0,1-3.26-1.362,4.026,4.026,0,0,1-.617-3.6,7.648,7.648,0,0,1,7.214-5.25h7.668l-2.735,10.212Z" transform="translate(-411.634 -45.589)" fill="#e84a4a"/>
      <path id="Trazado_88" data-name="Trazado 88" d="M490.954,45.589a16.829,16.829,0,0,0-10.118,3.225,14.007,14.007,0,0,0-5.414,8.22c-2.05,7.653,3.956,11.345,8.8,13.963,3.46,1.877,6.46,3.495,5.814,5.893-.462,1.723-1.214,3.227-5.477,3.227H471.545l-2.368,8.826h14.407c3.864,0,7.428-.812,10.3-3.014s4.5-5.295,5.51-9.059a9.947,9.947,0,0,0-1.991-9.555c-1.925-2.131-4.685-3.625-7.12-4.939-3.118-1.677-6.062-3.262-5.545-5.185a3.892,3.892,0,0,1,3.987-2.781h12.659l2.368-8.822Z" transform="translate(-358.508 -45.589)" fill="#e84a4a"/>
      <path id="Trazado_89" data-name="Trazado 89" d="M451.688,45.589a16.883,16.883,0,0,0-10.128,3.225,14.047,14.047,0,0,0-5.4,8.22C434.1,64.687,440.118,68.379,444.947,71c3.464,1.877,6.46,3.495,5.82,5.893-.462,1.723-1.214,3.227-5.481,3.227H432.279l-2.368,8.826h14.4c3.868,0,7.428-.812,10.3-3.014s4.5-5.295,5.5-9.059a9.963,9.963,0,0,0-1.992-9.555c-1.91-2.131-4.683-3.625-7.122-4.939-3.114-1.677-6.056-3.262-5.535-5.185a3.884,3.884,0,0,1,3.981-2.781H462.1l2.367-8.822Z" transform="translate(-394.76 -45.589)" fill="#e84a4a"/>
      <path id="Trazado_90" data-name="Trazado 90" d="M456.879,45.589l-11.3,43.354h9.539l11.291-43.354Z" transform="translate(-380.296 -45.589)" fill="#e84a4a"/>
      <path id="Trazado_91" data-name="Trazado 91" d="M483.651,45.589c-16.8.063-25.595,11.251-28.387,21.681-3.314,12.357,3.27,21.673,15.3,21.673h8.072l2.352-8.826h-8.057c-4.508,0-10.7-3.541-8.2-12.847a17.88,17.88,0,0,1,17.117-12.859h5.112l2.375-8.822Z" transform="translate(-372.142 -45.589)" fill="#e84a4a"/>
    </g>
  </g>
  <path id="Trazado_92" data-name="Trazado 92" d="M492.429,65.306a3.771,3.771,0,0,1,0,5.293,3.726,3.726,0,0,1-5.287,0,3.658,3.658,0,0,1-1.081-2.654,3.621,3.621,0,0,1,1.087-2.639,3.733,3.733,0,0,1,5.281,0Zm.429-.421a4.223,4.223,0,0,0-3.077-1.262,4.327,4.327,0,1,0,3.077,1.262Zm-2.427,2.862a2.3,2.3,0,0,1-.794.1h-.758V66.129h.706a2.118,2.118,0,0,1,1.017.173.729.729,0,0,1,.319.7A.737.737,0,0,1,490.431,67.746Zm-2.4,2.56h.846V68.437h.66a2.041,2.041,0,0,1,.927.146,1.181,1.181,0,0,1,.456,1.1v.381l.019.144a.162.162,0,0,0,.013.063.233.233,0,0,1,.01.038h.783l-.029-.052a.89.89,0,0,1-.038-.252c-.012-.127-.017-.24-.017-.354V69.3a1.265,1.265,0,0,0-.256-.735,1.165,1.165,0,0,0-.817-.469,1.8,1.8,0,0,0,.687-.229,1.04,1.04,0,0,0,.464-.937,1.183,1.183,0,0,0-.733-1.208,3.778,3.778,0,0,0-1.3-.169h-1.669v4.754" transform="translate(-271.58 -12.22)" fill="#e84a4a"/>
</svg>
