<svg id="CHAMPION" xmlns="http://www.w3.org/2000/svg" width="222.595" height="40.723" viewBox="0 0 222.595 40.723">
  <g id="Grupo_37" data-name="Grupo 37" transform="translate(0 0)">
    <path id="Trazado_236" data-name="Trazado 236" d="M308.678,507.332c.374.558,3.135.22,3.656.1,1.2-.286.923-1.235.913-2.932,0-1.138-.116-2.274-.12-3.412,0-.585.042-1.167.023-1.751q-.171-6.938,3.024-10.678a7.816,7.816,0,0,1,3.514-2.442c1.138-.222,1.8.069,2,.885a3.124,3.124,0,0,1-.863,3.152c-1.249,1.2-1.82.71-2.941.7q-1.126-.007,0,.985c3,2.657,7.313,1.951,7.874,1.876,5.118-.64,8.2-4.181,8.833-4.3s-.317,2.693,1.858,3.7c2.43,1.126,8.115.577,11.171-1.973l1.94-1.621c.794-.66.149,1.751,3.767,3.665,4.228,2.234,11.669.479,11.871-5.39.066-1.7-1.373-2.527.406-2.863,2.674-.507,1.82-.194,4.139,4.633.622,1.3,1.029,2.088,1.2,2.392.433.729.894,1.794,2.111,1.521,1.595-.355,4.458-3.564,4.7-3.876l1.512-1.919c.166-.208.4-.133.705.222l4.228,4.91a2.117,2.117,0,0,0,1.765.668,6.615,6.615,0,0,0,3.14-1.212,21.048,21.048,0,0,0,4.891-4.008c1.179-1.425,1.517-2.35,1.009-2.765-1.17-.969-3.121,1.368-4.591,2.047-3.878,1.779-6.008-4.874-7.562-5.712-1.157-.627-2.807.1-4.969,2.194l-1.867,1.8c-.733.71-1.254-1.858-1.815-2.882a3.352,3.352,0,0,0-1.107-1.373c-1.051-.518-7.11,1.373-10.7,1.534l-2.808.13c-.9.045.2,1.309.364,2.241.369,2.052-.4,4.134-1.645,4.453-2.177.561-2.8-2.96-2.619-4.2.452-3.057,3.665-3.523,3.881-3.684.613-.452-.014-.913-1.415-1.07-5.329-.585-7.108,5.044-13.024,8.266-4.555,2.486-3.246-.7-3.4-2.636-.369-4.578,1.54-4.891-4.408-4.716-.441.014-1.806-.156-2.212.816-.632,1.517.5,1.682-.926,3.332a10.652,10.652,0,0,1-5.648,3.7c-3.038.691-1.651-.821-1.37-1.711a8.175,8.175,0,0,0,.4-1.843c.17-2.116-2.568-4.56-7.03-3.914-3.933.575-6.93,4-7.055,4.084-.078.05-.142.142-.235.142h-.116a4.345,4.345,0,0,1-.073-1.465c.042-2.3.35-2.846-1.659-2.932-2.361-.111-2.471.318-2.863.793-.655.779-1.041,1.756-1.646,2.582q-2.585,3.518-3.793,3.052c-.507-.194-5.579-5.981-6.611-6.206a2.47,2.47,0,0,0-2.532,1.084l-3.32,4.08c-.271.332-.6.244-.994-.267l-3.168-4.094a2.37,2.37,0,0,0-3.758.331l-3.342,4.141c-.208.258-.485.175-.83-.253l-3.729-4.522a1.828,1.828,0,0,0-1.853-.383c-.868.313-3.094,2.632-5.087,4.328-.727.618-1.364,1.351-2.12,1.933a1.7,1.7,0,0,1-.277.206c-.71.35-1.373-1.148-1.983-1.89a8.234,8.234,0,0,0-2.516-2.388c-2.274-.677-1.983,2.669-2.389,3.826-.93,2.674-4.6,2.941-4.614.08-.023-3.274,4.228-4.689,4.444-4.832.36-.241,1-.913-.377-1.048q-3.915-.38-8.511,2.711l-5.076,3.421c-2.264,1.517-3.9-3.994-4.527-4.91a1.955,1.955,0,0,0-2.371-1.167,9.846,9.846,0,0,0-3.329,2.364l-2.613,2.416c-.185.17-.35.13-.489-.119a27.9,27.9,0,0,1-.378-5.1c-.059-1.937.052-3.878-.069-5.809a18.218,18.218,0,0,1-.028-3.587c.014-.222.047-.443.042-.665-.009-.857-.677-.7-2.324-.727-1.54-.033-2.655-.26-2.7.713l-.377,8.4q-.361,8.071.6,11.064c.5,1.568,1.249,2.421,2.231,2.578,2.83.443,5.338-3.606,5.785-4.058.369-.374.751-.913,1.439-.092.471.572.751,1.287,1.19,1.881,1.673,2.26,2.249,2.274,3.931,2.231,2.952-.069,5.911-3.088,6.585-3.438.857-.452.755.46.9.871.71,1.95,3.36,3.379,6.434,2.7,3.837-.844,3.92-2.841,5.094-2.444.771.253,1.739,2.877,3.753,2.619,1.157-.144,3.854-2.55,5.546-3.8,1.213-.9,1.928-1.406,2.139-1.536,1.131-.668,1.287.927,3.994,3.942.985,1.093,2.064,2.167,4.388-.18l3.459-3.5c.783-.788,1.811,1.684,4.269,4.136a3.7,3.7,0,0,0,.475.466c.774.54,1.853.038,3.216-1.517l2.749-3.126c.235-.267.557-.213.973.166,1.6,1.457,3.5,4.425,5.033,4.564q2.09.188,5.726-2.733l2.333-1.872c.747-.6.222,1.392.521,5.554a47.088,47.088,0,0,1,.061,4.8,34.351,34.351,0,0,0,.566,7.366Z" transform="translate(-172.634 -466.921)" fill="#e84a4a" fill-rule="evenodd"/>
    <path id="Trazado_237" data-name="Trazado 237" d="M238.929,491.154a53.344,53.344,0,0,1-11.075,2.965c-3.451.535-2.99.324-3.015-1.048-.1-5.961.236-11.924.041-17.882-.052-1.568,0-1.5,1.75-1.338a44.212,44.212,0,0,1,10.411,2.367c.675.235,3.548,1.844,1.865-.708-3.618-5.482-15.083-6.744-18.9-6.886-23.486-.865-35.134,14.081-24.423,24.072q6.063,5.653,16.945,6.871a40.731,40.731,0,0,0,9.219.039,38.885,38.885,0,0,0,7.013-1.3c5.718-1.733,9.824-4.607,11.8-7.027C241.993,489.516,240.053,490.719,238.929,491.154Zm-29.2,2.6a.52.52,0,0,1-.211.477,16.8,16.8,0,0,1-4.943-.669c-2.025-.59-6.133-2.408-7.865-5.956a9.005,9.005,0,0,1-.746-4.705c1-5.263,6.631-8.35,11.995-9.066a2.584,2.584,0,0,1,1.22-.116c.579.081.572.288.6.729Z" transform="translate(-191.578 -468.587)" fill="#e84a4a" fill-rule="evenodd"/>
    <path id="Trazado_238" data-name="Trazado 238" d="M297.589,478.866c.865.217,4.381.288,4.815-2.278s-3.851-3.962-6.286-2.1c-1.379,1.056-1.773,3.568,1.471,4.375Z" transform="translate(-133.23 -465.742)" fill="#e84a4a" fill-rule="evenodd"/>
    <g id="Grupo_36" data-name="Grupo 36" transform="translate(214.762 8.451)">
      <path id="Trazado_239" data-name="Trazado 239" d="M331.346,478.83a2.419,2.419,0,1,1,2.417-2.425A2.421,2.421,0,0,1,331.346,478.83Zm.008-4.427a2.007,2.007,0,1,0,2,2A2.017,2.017,0,0,0,331.354,474.4Z" transform="translate(-328.924 -473.992)" fill="#e84a4a"/>
    </g>
    <path id="Sustracción_1" data-name="Sustracción 1" d="M.515,2.521h0L0,2.519V0H1.276a.69.69,0,0,1,.744.7.618.618,0,0,1-.491.629.517.517,0,0,1,.4.436,1.547,1.547,0,0,1,.026.377,1.54,1.54,0,0,0,.027.38l-.482,0,0-.009A1.24,1.24,0,0,1,1.469,2.1c0-.406-.229-.588-.456-.588h-.5V2.521Zm0-2.075h0v.728l.657.006A.367.367,0,0,0,1.153.446H.514Z" transform="translate(216.206 9.585)" fill="#e84a4a"/>
  </g>
</svg>
