<svg id="Grupo_10903" data-name="Grupo 10903" xmlns="http://www.w3.org/2000/svg" xmlns:xlink="http://www.w3.org/1999/xlink" width="145.572" height="108.871" viewBox="0 0 145.572 108.871">
  <defs>
    <clipPath id="clip-path">
      <rect id="Rectángulo_900" data-name="Rectángulo 900" width="145.572" height="108.871" fill="#e84a4a"/>
    </clipPath>
  </defs>
  <g id="Grupo_10902" data-name="Grupo 10902" clip-path="url(#clip-path)">
    <path id="Trazado_10124" data-name="Trazado 10124" d="M144.013,61.135q-7.556-11.329-15.1-22.657c-4.066-6.2-6.971-6.583-11.619-7.357-12.972-2.132-25.946-4.067-38.922-6.2-.581-.968-1.356-1.937-1.935-2.9-4.453-6.777-10.844-8.327-18.008-10.07C44.1,8.465,25.312,4.011,10.789.525,1.688-1.8-.636,4.011.139,9.626,4.012,38.478,8.272,71.011,12.145,99.859c1.354,9.3,5.615,11.232,16.845,6.584,15.3-6.2,31.371-12.587,46.474-18.779,5.809-2.329,9.1-2.9,10.648,1.162.39,1.35.2.387.584,1.738,1.936,5.228,10.261,5.035,14.327,2.523,12.2-6.783,28.467-16.073,40.664-23.044,2.326-1.356,6-3.292,2.326-8.908M128.521,48.16a.8.8,0,0,1,.968.387l3.1,4.841a1.049,1.049,0,0,1-.775,1.549l-29.628,5.229a1.381,1.381,0,0,1-1.162-.581l-4.067-8.328a1.014,1.014,0,0,1,.775-1.549ZM89.6,33.443l31.952,3.293a1.466,1.466,0,0,1,.775.386l2.518,4.26c.581.581,0,1.549-.775,1.549l-30.984-.194c-.384,0-.772-.387-.966-.581l-3.679-7.165c-.387-.774.194-1.549,1.159-1.549M26.28,63.652,16.211,12.53c-.194-.581.58-1.356,1.354-1.162L34.8,14.08a1.362,1.362,0,0,1,.968.776l1.548,5.808a12.035,12.035,0,0,1,1.55-2.324A5.878,5.878,0,0,1,44.1,16.984c11.037,1.743,17.619,3.292,21.88,5.228,4.454,1.743,6.392,3.873,7.552,6.584L86.308,57.649A1.072,1.072,0,0,1,84.759,59c-3.1-1.549-7.554-.968-12.973-.194H70.623c-.388.194-.968-.194-1.162-.581L60.94,34.6c-2.129-5.808-8.324-6.389-13.746-6.97H45.643c-.387-.194-.193,0-.193,0-2.516-.387-4.453-.581-5.421-.194-.388,0-.581.581-.194,1.742l9.1,31.177a1.136,1.136,0,0,1-.967,1.355L27.442,64.427a1.592,1.592,0,0,1-1.162-.774M138.4,64.62,111.093,77.6c-.387.194-.581.194-.968.382-4.066,1.748-8.133,2.523-11.619,1.748a12.28,12.28,0,0,1-7.162-4.454c-1.165-1.743-1.358-1.937-3.486-1.356L32.089,90.371c-.581.194-1.355-.194-1.355-.775l-2.9-15.68a.916.916,0,0,1,.774-1.162l44.149-7.746c7.94-1.356,13.749-2.324,17.813,3.873.971,1.743.971,1.549,2.9.968l41.438-11.813c.387-.194.971.194,1.358.387l2.708,4.648a1.221,1.221,0,0,1-.578,1.549" transform="translate(0 0)" fill="#e84a4a"/>
  </g>
</svg>
