<svg xmlns="http://www.w3.org/2000/svg" width="162.675" height="53.577" viewBox="0 0 162.675 53.577">
  <path id="Trazado_174" data-name="Trazado 174" d="M75.474,281.562a11.72,11.72,0,0,1-6.035-2.758,16.9,16.9,0,0,1-6.206-8.742s-1.113-3.955,1.235-10.7c0,0,2.791-6.759,4.113-8.151a66.921,66.921,0,0,0-12.764,13s-6.2,7.9-8.888,15.723c0,0-2.6,7.874,1,15.148a16.051,16.051,0,0,0,2.12,3.14,17.863,17.863,0,0,0,3.45,2.967,19.782,19.782,0,0,0,8.279,3.256c5.762.84,7.709.023,13.721-1.29a172.146,172.146,0,0,0,18.685-6.01l114.516-44.129L98.64,279.489A121.485,121.485,0,0,1,85.352,281.8c-1.2.112-3.613.226-4.491.2A44.683,44.683,0,0,1,75.474,281.562Z" transform="translate(-46.018 -251.211)" fill="#e84a4a"/>
</svg>
