<svg id="Grupo_26" data-name="Grupo 26" xmlns="http://www.w3.org/2000/svg" width="155.8" height="78.371" viewBox="0 0 155.8 78.371">
  <g id="Grupo_25" data-name="Grupo 25" transform="translate(0 0)">
    <g id="Grupo_23" data-name="Grupo 23" transform="translate(76.469)">
      <path id="Trazado_176" data-name="Trazado 176" d="M598.007,243.078c-.522.071-1.01,1.954-1.989,2.919-.723.716-1.62.672-2.106,1.545-.176.317-.11.885-.312,1.4-.415,1.083-1.815,1.179-1.827,2.337-.005,1.268,1.181,1.5,2.2,2.391.817.714.887,1.219,1.85,1.552.838.3,2.071-.624,3.175-.291.909.268,1.792.458,1.985,1.388.187.867,0,2.2-1.115,2.06a11.457,11.457,0,0,0-3.967-.373c-2.395.265-5.126,1.045-5.4,3.713a3.073,3.073,0,0,0,3.483,2.893c1.226-.242.653-1.693,1.326-2.4.871-.906,5.857,3.156,10.487,3.156a6.113,6.113,0,0,0,4.849-2.006c.122-.106.3-.354.5-.383a1.887,1.887,0,0,1,.653.293c3.74,3,6.552,9.02,20.267,9.1A9.176,9.176,0,0,1,638,274.945c1.6,1.465,2.531,3.773,3.441,6.108,1.373,3.506,3.827,6.908,7.563,10.7.2.207,3.283,2.6,3.511,2.764a1.42,1.42,0,0,1,.192.866c-.092,2.289-.42,8.9,4.506,9.179,1.21.073.9-.773.9-1.364a6.7,6.7,0,0,1,.39-3.468c.819-1.616-1.759-2.369-1.682-5.884.047-2.6-2.144-2.163-3.269-4.161-.641-1.155-1.205-1.757-1.167-3.166.251-7.944-1.688-13.171-2.66-14.44-.75-.967-1.374-1.346-.683-1.8,4.116-2.721,5.044-5.248,5.044-5.248,2.186-5.143,4.151-9.834,6.876-11.915a20.261,20.261,0,0,1,2.792-1.872,19.376,19.376,0,0,0,4.609-2.635c1.163-1.136,2.083-3.513.958-4.929-1.371-1.773-3.78-.369-4.84.254-7.559,4.494-8.675,12.413-11.3,16.957-2.081,3.631-5.472,6.3-8.529,6.531a15.473,15.473,0,0,1-7.171-1.369,36.081,36.081,0,0,1-9.968-6.578c-1.6-1.231-14-13.4-24.06-13.9,0,0-1.237-2.492-1.55-2.543-.733-.089-1.491,1.494-2.029,1.677C599.371,244.879,598.516,242.984,598.007,243.078Z" transform="translate(-590.5 -242.815)" fill="#e84a4a"/>
    </g>
    <path id="Trazado_177" data-name="Trazado 177" d="M574.55,298.78a1.785,1.785,0,0,1-1.749-1.743l0-31.36H562.476v34.559a3.056,3.056,0,0,0,3.046,3.062h18.067a3.051,3.051,0,0,0,3.053-3.062V265.677H576.314v31.36A1.8,1.8,0,0,1,574.55,298.78Z" transform="translate(-534.816 -225.857)" fill="#e84a4a"/>
    <path id="Trazado_178" data-name="Trazado 178" d="M597.354,265.677H581.721a3.365,3.365,0,0,0-3.353,3.381v34.235h10.323V271.884a1.757,1.757,0,0,1,1.763-1.721,1.724,1.724,0,0,1,1.75,1.7v31.431h10.3V271.862a1.722,1.722,0,0,1,1.754-1.7,1.757,1.757,0,0,1,1.754,1.721v31.408h10.327V269.058a3.366,3.366,0,0,0-3.354-3.381Z" transform="translate(-523.029 -225.857)" fill="#e84a4a"/>
    <path id="Trazado_179" data-name="Trazado 179" d="M567.374,293.856H556.925V303.3h-10.33V265.677h20.831a3.347,3.347,0,0,1,3.328,3.388v21.393A3.4,3.4,0,0,1,567.374,293.856Zm-6.939-21.914a1.762,1.762,0,0,0-1.754-1.773h-1.756V289.2h1.756a1.757,1.757,0,0,0,1.754-1.782Z" transform="translate(-546.595 -225.857)" fill="#e84a4a"/>
    <g id="Grupo_24" data-name="Grupo 24" transform="translate(124.2 69.106)">
      <path id="Trazado_180" data-name="Trazado 180" d="M627.107,287.123a4.6,4.6,0,1,1-4.654-4.631A4.614,4.614,0,0,1,627.107,287.123Zm-4.643-3.945a3.873,3.873,0,1,0,.059,0Z" transform="translate(-617.904 -282.492)" fill="#e84a4a"/>
      <path id="Trazado_181" data-name="Trazado 181" d="M623.443,288.959h-1.237l-1.587-2.106v2.106H619.6v-5.331h1.082c1.437,0,2.188.55,2.188,1.581a1.542,1.542,0,0,1-1.076,1.486l-.075.033Zm-2.654-2.977c.723,0,1.1-.254,1.1-.761,0-.448-.364-.691-1.075-.691h-.2v1.453Z" transform="translate(-616.647 -281.649)" fill="#e84a4a"/>
    </g>
    <path id="Trazado_182" data-name="Trazado 182" d="M616.014,303.293v-9.431h-3.5v9.431H602.187V269.058a3.379,3.379,0,0,1,3.365-3.381h17.44a3.366,3.366,0,0,1,3.349,3.381v34.235Zm0-14.09V271.884a1.727,1.727,0,0,0-1.749-1.7A1.758,1.758,0,0,0,612.5,271.9v17.3Z" transform="translate(-505.362 -225.857)" fill="#e84a4a"/>
  </g>
</svg>
