<svg id="Grupo_11179" data-name="Grupo 11179" xmlns="http://www.w3.org/2000/svg" width="145.036" height="72.457" viewBox="0 0 145.036 72.457">
  <path id="Trazado_210" data-name="Trazado 210" d="M502.52,370.917,477.7,372.79l-12.318,1.181-6.31.706-6.267.778-6.153.85-5.927.922-5.612,1.023,15.43,9.048,5.1-2.031,4.841-1.873,4.769-1.758,4.87-1.686,5.158-1.671,5.648-1.7,6.3-1.758,7.132-1.873Z" transform="translate(-357.484 -337.302)" fill="#e84a4a" fill-rule="evenodd"/>
  <path id="Trazado_211" data-name="Trazado 211" d="M437.908,383.094l-7.247,3.746-5.868,3.89-4.525,3.717-3.213,3.2-1.936,2.348h20.736l3.089-4.178,3.146-3.3,3.268-2.766,3.455-2.564-5.423-2.075Z" transform="translate(-371.552 -328.733)" fill="#e84a4a" fill-rule="evenodd"/>
  <path id="Trazado_212" data-name="Trazado 212" d="M432.262,379.644l-6.56,2.507-5.846,2.564-5.191,2.651-4.59,2.737-4.051,2.838-3.566,2.968-3.138,3.083-2.771,3.242,22.889.043,1.645-2,2.723-2.737,3.835-3.242,4.982-3.487,6.159-3.515,7.372-3.314-3.329-1.095L436,380.739l-3.706-1.095Z" transform="translate(-384.621 -331.161)" fill="#e84a4a" fill-rule="evenodd"/>
  <path id="Trazado_213" data-name="Trazado 213" d="M444.051,371.424H393.3l7.133,1.34,6.8,1.383,6.492,1.412,6.212,1.455,5.959,1.5,5.734,1.542,5.534,1.585,5.361,1.642,5.215,1.686,5.1,1.729,5.005,1.772,4.94,1.83,4.9,1.887,4.891,1.945,9.86,4.063L508.761,409.4l-1.642-1.081L474.2,388.655,455.12,377.562l-4.94-2.809-3.78-2.089Z" transform="translate(-386.906 -336.945)" fill="#e84a4a" fill-rule="evenodd"/>
  <g id="Grupo_31" data-name="Grupo 31" transform="translate(0 0)">
    <path id="Trazado_214" data-name="Trazado 214" d="M478.044,364.285c2.6-.393,4-2.2,4.852-4.667V357h-6.917a4.29,4.29,0,0,1-3.3,4.828h-3.392l-.021-10.611h-6.8V375.5h6.8v-8.612h3.552a5.255,5.255,0,0,1,3.157,4.851V375.5H482.9v-5.781c.16-1.741-2.438-5.224-4.854-5.433Z" transform="translate(-338.231 -351.168)" fill="#e84a4a" fill-rule="evenodd"/>
    <path id="Trazado_215" data-name="Trazado 215" d="M468.312,358.37a11.565,11.565,0,0,0-8.638-3.83h-.186c-6.013,0-10.935,4.178-10.935,9.309s4.922,9.309,10.935,9.309h.186a11.486,11.486,0,0,0,8.638-3.828,8.164,8.164,0,0,0,0-10.96Zm-8.614,9.589h-.024c-2.738,0-4.968-1.881-4.968-4.155,0-2.322,2.23-4.179,4.968-4.179h.024c2.74,0,4.968,1.857,4.968,4.179C464.665,366.078,462.437,367.959,459.7,367.959Z" transform="translate(-348.023 -348.827)" fill="#e84a4a" fill-rule="evenodd"/>
    <path id="Trazado_216" data-name="Trazado 216" d="M414.35,373.111h13.071v-5.779H415.741c-4.063-1.464-4.132-5.5-.116-7.083h4.76l-3.714,6.13,6.662-.046,4.087-6.316v-5.409H414.046C403.367,357.278,403,371.116,414.35,373.111Z" transform="translate(-378.015 -348.779)" fill="#e84a4a" fill-rule="evenodd"/>
    <path id="Trazado_217" data-name="Trazado 217" d="M446.887,375.5c14.3-1.392,11.909-17.063,1.717-18.5H442.5v5.641h4.389c4.014,1.138,4.062,4.806.138,7.083H441.08V351.214h-6.917l.022,24.285Z" transform="translate(-358.15 -351.168)" fill="#e84a4a" fill-rule="evenodd"/>
    <path id="Trazado_218" data-name="Trazado 218" d="M414.529,381.347l.048-7.478a6.5,6.5,0,0,0-4.413-6.174c7.314-2.578,7.847-15.208-3.482-16.508l-17.133.046v24.285h6.686v-18.55l7.664.094c5.547.254,5.827,7.616.162,7.708l-5.943.068.046,5.178h5.27c2.6.463,4.016,1.951,4.179,4.457v6.943Z" transform="translate(-389.548 -351.187)" fill="#e84a4a" fill-rule="evenodd"/>
    <path id="Trazado_219" data-name="Trazado 219" d="M428.669,373.111h13.047v-5.779H430.063c-4.064-1.464-4.133-5.5-.116-7.083h4.782l-3.738,6.13,6.64-.046,4.086-6.316v-5.409H428.368a11.033,11.033,0,0,0-6.2,3.924,8.925,8.925,0,0,0,0,11.028,10.413,10.413,0,0,0,6.5,3.551Z" transform="translate(-367.934 -348.779)" fill="#e84a4a" fill-rule="evenodd"/>
  </g>
</svg>
