<svg id="Grupo_22" data-name="Grupo 22" xmlns="http://www.w3.org/2000/svg" width="161.793" height="97.655" viewBox="0 0 161.793 97.655">
  <path id="Trazado_175" data-name="Trazado 175" d="M514.37,334.263c0-.95-.219-2.452,1.652-2.452h3.189c1.886,0,1.679,1.5,1.679,2.452,0,1.063.052,2.654-1.4,2.654h-3.765c-1.449,0-1.358-1.591-1.358-2.654m-3.346-.067c0,2.109-.125,5.363,2.729,5.363h7.585c2.895,0,2.755-3.254,2.755-5.363,0-1.921.232-4.985-3.356-4.985h-6.343C510.819,329.238,511.024,332.262,511.024,334.2Zm-16.914-4.181v8.8c0,.284-.048.718.6.718h1.744c.614,0,.578-.434.578-.718v-6.4c1.2,2.316,2.982,5.843,3.623,7.121h2.678c.668-1.278,2.437-4.805,3.653-7.121v6.4c0,.284-.05.718.591.718h1.754c.641,0,.551-.434.551-.718v-8.8c0-.3.063-.748-.551-.748h-3c-.5,0-1.128-.111-1.834,1.414a56.72,56.72,0,0,1-2.51,5.106c-.781-1.347-1.921-3.88-2.458-5.106-.718-1.525-1.359-1.414-1.806-1.414h-3.014C494.076,329.267,494.11,329.714,494.11,330.015Zm-10,2.4c0-.2-.027-.434.614-.434h3.83c1.336,0,1.409.175,1.409,1.24,0,.531,0,1.032-1.909,1.032h-3.945Zm-3.2-2.26v9.041c0,.367.4.34.257.34H483.7a.432.432,0,0,0,.472-.42V334.85s.693,1.468,1.053,2.124h3.713c.257,0,.921-.056.921,1.211,0,.462-.125,1.347.4,1.347h2.525c.153,0,.345.015.345-.543,0-1.09.2-3.2-1.345-3.488.921-.666,1.36-.775,1.36-2.94,0-3.31-1.681-3.293-2.832-3.293h-8.615A.789.789,0,0,0,480.9,330.151Zm-9.638,5.106c.1-.232,1.447-2.819,1.587-3.078l.155-.015c.129.274,1.41,2.861,1.512,3.093l-.155.15H471.4Zm-.307-5.923s-4.549,8.7-5.215,10.035v.219h3.264c.449-.8,1.756-3.446,2-3.868.192.449.858,2.072.858,2.072h3.958l.936,1.8h3.258v-.343c-.656-1.251-3.782-7.253-4.231-8.237-.666-1.376-1.28-1.675-1.909-1.675Zm-20.936,3.076c0-.2-.025-.434.614-.434h3.832c1.333,0,1.41.175,1.41,1.24,0,.531,0,1.032-1.911,1.032h-3.945Zm-3.206-2.26v9.041c0,.367.4.34.259.34h2.538a.432.432,0,0,0,.474-.42V334.85s.691,1.468,1.05,2.124h3.718c.255,0,.919-.056.919,1.211,0,.462-.127,1.347.4,1.347H458.7c.152,0,.344.015.344-.543,0-1.09.2-3.2-1.345-3.488.923-.666,1.357-.775,1.357-2.94,0-3.31-1.679-3.293-2.832-3.293h-8.609A.791.791,0,0,0,446.815,330.151Zm-11.952,1.293v5.666c0,2.26,1.33,2.479,2.011,2.479h8.174c.641,0,.589-.464.589-1.295,0-.775.052-1.253-.589-1.253h-6.459c-.15,0-.677.123-.677-.5v-2.7l.885,1.825h5.689c.487,0,.5-.234.37-.476-.09-.276-.883-1.878-.883-1.878h-5.5c-.629,0-.512-.248-.512-.875s.564-.53.729-.53h6.215c.679,0,.578-.449.578-1.253,0-.858.088-1.32-.578-1.32h-7.867A2.03,2.03,0,0,0,434.863,331.444ZM429,332c1.023,0,1.664.1,1.664,2.519,0,.721.117,2.3-1.439,2.3h-5.1V332Zm.679-2.736h-8.535v10.264h3.014v-2.151l1,2.151h4.6c4.359,0,3.947-2.435,3.947-6.426A3.618,3.618,0,0,0,429.677,329.267ZM405.55,335.42v-5.4c0-.3.063-.764-.629-.764h-1.909c-.614,0-.576.464-.576.764v5.4a1.275,1.275,0,0,1-1.385,1.418h-3.176a1.271,1.271,0,0,1-1.4-1.418v-5.4c0-.3.04-.764-.574-.764H394c-.654,0-.629.436-.629.764v5.4c0,1.144.065,4.112,3.73,4.112h4.7C405.485,339.532,405.55,336.564,405.55,335.42ZM414,332.711c-.909-1.376-2.293-3.461-3.266-3.461h-3.446c-.589,0-.562.464-.562.764v8.8c0,.284-.079.718.562.718h1.767c.643,0,.576-.434.576-.718v-6.579c1.884,2.464,3.73,4.793,5.023,6.646a1.87,1.87,0,0,0,1.784.651h3.536v-9.517c0-.3.038-.764-.576-.764h-1.923c-.639,0-.6.464-.6.764v6.508C416,335.338,414.71,333.757,414,332.711Zm76.66-54.268c-4.522,3.016-10.695,4.989-18.272,4.989l-.24,0h-.006l-.24,0c-7.568,0-13.736-1.969-18.257-4.979,4.524-3.014,10.695-4.987,18.272-4.987l.238,0h.008l.238,0C479.973,273.466,486.145,275.436,490.664,278.443Zm18.228,0c12.779-5.973,21.122-14.943,21.576-24.894,0,0-3.369-2.765-14.26-7.019a75.681,75.681,0,0,0-16.862-4.6l.031,22.177a15.773,15.773,0,0,1-3.619,9.7,95.342,95.342,0,0,0-23.591-2.907h-.006a95.231,95.231,0,0,0-23.614,2.913,15.745,15.745,0,0,1-3.628-9.7l.031-22.177a75.71,75.71,0,0,0-16.862,4.6c-10.891,4.254-14.262,7.019-14.262,7.019.455,9.956,8.807,18.93,21.6,24.9-12.781,5.975-21.127,14.945-21.578,24.894,0,0,3.367,2.763,14.258,7.021a75.657,75.657,0,0,0,16.864,4.6l-.033-22.177a15.739,15.739,0,0,1,3.623-9.7A95.317,95.317,0,0,0,472.146,286h0a95.439,95.439,0,0,0,23.618-2.911,15.733,15.733,0,0,1,3.626,9.7l-.033,22.177a75.6,75.6,0,0,0,16.862-4.6c10.891-4.258,14.26-7.021,14.26-7.021C530.033,293.392,521.677,284.418,508.892,278.445Zm28.422,56.975v-5.4c0-.3.069-.764-.626-.764h-1.909c-.616,0-.574.464-.574.764v5.4a1.275,1.275,0,0,1-1.387,1.418h-3.179a1.269,1.269,0,0,1-1.4-1.418v-5.4c0-.3.036-.764-.576-.764h-1.9c-.652,0-.627.436-.627.764v5.4c0,1.144.065,4.112,3.728,4.112h4.705C537.249,339.532,537.313,336.564,537.313,335.42Zm10.3-2.2c0,.531,0,1.032-1.909,1.032h-3.945V332.41c0-.2-.027-.434.614-.434h3.832C547.538,331.976,547.616,332.151,547.616,333.216Zm3.179-.656c0-3.31-1.679-3.293-2.832-3.293h-8.611a.791.791,0,0,0-.8.883v9.041c0,.367.4.34.259.34h2.535a.432.432,0,0,0,.474-.42V334.85s.693,1.468,1.053,2.124h3.713c.257,0,.923-.056.923,1.211,0,.462-.127,1.347.4,1.347h2.525c.152,0,.345.015.345-.543,0-1.09.2-3.2-1.345-3.488C550.36,334.835,550.794,334.726,550.794,332.561Zm3.057,4.643c0,.123-.044.2-.3.2h-.5v-.466h.5c.253,0,.3.09.3.238Zm.424.031a.586.586,0,0,0-.568-.633h-.779c-.213,0-.24.058-.24.3v1.627l.142.276c.083,0,.242-.019.242-.213v-.725h.269c.155.242.3.543.524.89.059.06.439,0,.3-.272-.1-.18-.238-.468-.34-.664C554.133,337.822,554.276,337.569,554.276,337.235Zm.47.393a1.376,1.376,0,0,1-1.362,1.462,1.408,1.408,0,0,1-1.393-1.462,1.439,1.439,0,0,1,1.351-1.416A1.364,1.364,0,0,1,554.745,337.627Zm.424,0a1.812,1.812,0,0,0-1.786-1.871,1.878,1.878,0,0,0-1.775,1.871,1.838,1.838,0,0,0,1.733,1.928A1.889,1.889,0,0,0,555.169,337.627Z" transform="translate(-393.376 -241.933)" fill="#e84a4a"/>
</svg>
