<svg id="Grupo_6" data-name="Grupo 6" xmlns="http://www.w3.org/2000/svg" width="153.295" height="62.36" viewBox="0 0 153.295 62.36">
  <path id="Trazado_57" data-name="Trazado 57" d="M38.162,74.636h-2.32L35.4,69.662h2.319Zm140.394,0h2.319l.443-4.974H179ZM34.03,69.662H31.711l.443,4.974h2.319Zm148.216,4.974h2.32l.441-4.974h-2.319ZM49.9,75.846a3.133,3.133,0,0,1-3.15,3.255,3.187,3.187,0,0,1-3.171-3.29v-.035a3.129,3.129,0,0,1,3.134-3.255,3.191,3.191,0,0,1,3.187,3.29v.035m-9.846,0a6.385,6.385,0,0,0,6.659,6.3A6.443,6.443,0,0,0,53.4,75.811v-.035a6.384,6.384,0,0,0-6.658-6.3,6.444,6.444,0,0,0-6.7,6.337v.035M55.541,81.9h3.436V77.553h5.861v-2.8H58.977V72.677h6.482V69.718H55.541Zm11.918,0h3.435V77.553h5.862v-2.8H70.893V72.677h6.482V69.718H67.458Zm19.584,0h3.436V72.678H94.2v-2.96H83.325v2.96h3.718Zm9.41,0h3.436v-4.63h4.41V81.9h3.436V69.718H104.3V74.28h-4.41V69.718H96.453Zm13.611,0h10.059V79.031h-6.658V77.1h5.949V74.436h-5.949V72.591h6.569V69.718h-9.971Zm19.5.087h2.993l2.48-7.016,2.5,7.016h2.993l4.145-12.273h-3.561l-2.159,7.051-2.392-7.086H133.6l-2.391,7.086-2.16-7.051h-3.629ZM148.685,77.1l1.4-3.463,1.382,3.463Zm-5.507,4.8h3.612l.886-2.176h4.782l.9,2.176h3.683l-5.277-12.273h-3.311Zm15.512,0h9.439V78.946h-6V69.718H158.69Zm11.351,0h9.439V78.946h-6V69.718h-3.436Z" transform="translate(-31.711 -19.788)" fill="#e84a4a"/>
  <path id="Trazado_58" data-name="Trazado 58" d="M159.416,51.712h-6.662c-.647-1.637-1.367-2.913-5.1-2.913-2.579,0-3.676,1.061-3.676,2.129,0,1.165.918,2.148,3.764,2.779l6.034,1.61a7.549,7.549,0,0,1,5.869,7.5,8.217,8.217,0,0,1-2.148,5.892c-1.308,1.361-3.285,3.157-9.842,3.157-9.015,0-11.979-5.7-11.979-9.144h7.02c.691,2.514,2.417,3.472,5.835,3.472,2.367,0,4.4-.844,4.4-2.657,0-1.723-1.473-2.371-3.375-2.892l-4.769-1.287c-2.3-.7-4.221-1.26-5.578-2.41a7.114,7.114,0,0,1,.57-11.271,12.061,12.061,0,0,1,7.809-2.382,13.405,13.405,0,0,1,8.264,2.434c1.629,1.122,3.565,3.828,3.565,5.978M46.883,32.444c.054.239,13.946,39.1,13.946,39.1h8.288L81.884,39.207h79.289l.6-6.763H75.79L65.2,59.252,55.657,32.444H46.883m68.575,25.119,10.35,13.977h6.477V43.9H124.81V58.93L115.422,43.9h-7.157V71.54h7.193ZM162.071,70.1a1.458,1.458,0,0,0-1.464-1.465,1.469,1.469,0,1,0,1.464,1.465m-.169,0a1.3,1.3,0,1,1-1.295-1.3,1.293,1.293,0,0,1,1.295,1.3m-.6-.3c0-.325-.239-.515-.613-.515H160v1.563h.345v-.5h.272l.331.5h.4l-.381-.561a.486.486,0,0,0,.337-.487m-.349.02c0,.134-.093.228-.268.228h-.345v-.459h.337c.17,0,.276.078.276.231M75.948,71.54H83.9l1.485-4.325H95.91l1.523,4.325h7.829L95.243,43.9H86.821Zm11.657-9.325,3.079-9.19,3.042,9.19Z" transform="translate(-26.526 -32.444)" fill="#e84a4a"/>
</svg>
